<svg width="1194" height="834" viewBox="0 0 1194 834" fill="none" xmlns="http://www.w3.org/2000/svg">
<path fill-rule="evenodd" clip-rule="evenodd" d="M593.403 415.786L0 358.036V235.85L592.747 415.435L593.403 415.786Z" fill="#6600FF"/>
<path fill-rule="evenodd" clip-rule="evenodd" d="M593.403 418.214L592.747 418.565L0 598.15V475.964L593.403 418.214Z" fill="#FEC64C"/>
<path fill-rule="evenodd" clip-rule="evenodd" d="M555.554 0L595.787 413.403L595.435 412.747L470.385 0H555.554Z" fill="#64D63C"/>
<path fill-rule="evenodd" clip-rule="evenodd" d="M723.616 0L598.565 412.747L598.214 413.403L638.447 0H723.616Z" fill="#FF6B00"/>
<path fill-rule="evenodd" clip-rule="evenodd" d="M595.787 420.597L595.435 421.253L470.385 834H555.554L595.787 420.597Z" fill="#FF6B00"/>
<path fill-rule="evenodd" clip-rule="evenodd" d="M598.214 420.597L598.565 421.253L723.616 834H638.447L598.214 420.597Z" fill="#64D63C"/>
<path fill-rule="evenodd" clip-rule="evenodd" d="M601.253 418.565L600.597 418.214L1194 475.964V598.15L601.253 418.565Z" fill="#6600FF"/>
<path fill-rule="evenodd" clip-rule="evenodd" d="M1194 235.85V358.036L600.597 415.786L601.253 415.435L1194 235.85Z" fill="#FEC64C"/>
<path fill-rule="evenodd" clip-rule="evenodd" d="M88.8142 0L595.176 416.037H595.041L594.146 415.859L592.747 415.435L0 97.949V0H88.8142Z" fill="#00B7FF"/>
<path fill-rule="evenodd" clip-rule="evenodd" d="M595.858 414.146L596 415L596.036 415.176L254.92 0H374.36L595.435 412.747L595.858 414.146Z" fill="#014782"/>
<path fill-rule="evenodd" clip-rule="evenodd" d="M599.854 415.859L599 416L598.824 416.037L1105.19 0H1194V97.9491L601.253 415.435L599.854 415.859Z" fill="#F01F45"/>
<path fill-rule="evenodd" clip-rule="evenodd" d="M939.08 0L597.963 415.176L598 415L598.141 414.146L598.565 412.747L819.64 0H939.08Z" fill="#F45094"/>
<path fill-rule="evenodd" clip-rule="evenodd" d="M594.146 418.141L595 418L595.176 417.963L88.8141 834H0V736.051L592.747 418.565L594.146 418.141Z" fill="#F01F45"/>
<path fill-rule="evenodd" clip-rule="evenodd" d="M254.92 834L596.036 418.824L596 419L595.859 419.854L595.435 421.253L374.36 834H254.92Z" fill="#F45094"/>
<path fill-rule="evenodd" clip-rule="evenodd" d="M598.141 419.854L598 419L597.963 418.824L939.08 834H819.64L598.565 421.253L598.141 419.854Z" fill="#014782"/>
<path fill-rule="evenodd" clip-rule="evenodd" d="M599.854 418.141L599 418L598.824 417.963L1105.19 834H1194V736.051L601.253 418.565L599.854 418.141Z" fill="#00B7FF"/>
</svg>
