<?xml version="1.0" encoding="UTF-8"?>
<svg id="Capa_2" data-name="Capa 2" xmlns="http://www.w3.org/2000/svg" xmlns:xlink="http://www.w3.org/1999/xlink" viewBox="0 0 1271.39 1211.83">
  <defs>
    <style>
      .cls-1 {
        clip-path: url(#clippath);
      }

      .cls-2 {
        fill: none;
      }

      .cls-2, .cls-3, .cls-4, .cls-5, .cls-6, .cls-7, .cls-8, .cls-9, .cls-10, .cls-11, .cls-12, .cls-13 {
        stroke-width: 0px;
      }

      .cls-14 {
        filter: url(#drop-shadow-1);
      }

      .cls-4 {
        fill: #f9c043;
      }

      .cls-5 {
        fill: #7d3318;
      }

      .cls-6 {
        fill: #5d0ef4;
      }

      .cls-7 {
        fill: #52b3f8;
      }

      .cls-8 {
        fill: #9c4d2c;
      }

      .cls-9 {
        fill: #e27037;
      }

      .cls-10 {
        fill: #e15c92;
      }

      .cls-11 {
        fill: #fff;
      }

      .cls-12 {
        fill: #fcf7eb;
      }

      .cls-13 {
        fill: #66c45d;
      }
    </style>
    <clipPath id="clippath">
      <path class="cls-2" d="M435.21,220.57h396.12c28.85,0,52.28,23.42,52.28,52.28v1161.25c0,28.85-23.42,52.28-52.28,52.28h-396.12c-28.85,0-52.28-23.42-52.28-52.28V272.84c0-28.85,23.42-52.28,52.28-52.28Z" transform="translate(1486.74 220.19) rotate(90)"/>
    </clipPath>
    <filter id="drop-shadow-1" filterUnits="userSpaceOnUse">
      <feOffset dx="7" dy="7"/>
      <feGaussianBlur result="blur" stdDeviation="5"/>
      <feFlood flood-color="#000" flood-opacity=".34"/>
      <feComposite in2="blur" operator="in"/>
      <feComposite in="SourceGraphic"/>
    </filter>
  </defs>
  <g id="Capa_1-2" data-name="Capa 1">
    <rect class="cls-8" x="293.83" width="50.03" height="712.19"/>
    <rect class="cls-5" x="318.85" width="38.27" height="712.19"/>
    <rect class="cls-8" x="866.85" width="50.03" height="712.19"/>
    <rect class="cls-5" x="891.86" width="38.27" height="712.19"/>
    <g>
      <g>
        <path class="cls-9" d="M55.3,601.12h1161.25c28.85,0,52.28,23.42,52.28,52.28v396.12c0,28.85-23.42,52.28-52.28,52.28H55.3c-28.85,0-52.28-23.42-52.28-52.28v-396.12c0-28.85,23.42-52.28,52.28-52.28Z"/>
        <path class="cls-3" d="M5.53,1049.52c0-46.88,0-93.77,0-140.65,0-71.96,0-143.92,0-215.88,0-14.28-.85-28.84.12-43.1,1.77-26.06,23.95-45.91,49.73-46.27,1.72-.02,3.43,0,5.15,0,29.93,0,59.85,0,89.78,0,58.36,0,116.73,0,175.09,0,74.73,0,149.45,0,224.18,0,78.88,0,157.75,0,236.63,0,71.29,0,142.58,0,213.87,0,51.89,0,103.78,0,155.67,0,20.27,0,40.56-.29,60.82,0,27.46.4,49.38,22.36,49.78,49.8.06,4,0,8,0,12,0,25.23,0,50.45,0,75.68,0,75.34,0,150.69,0,226.03,0,24.28,0,48.56,0,72.84,0,5.8.31,11.81-.62,17.54-3.93,24.15-25.08,41.46-49.27,41.79-21.45.3-42.93,0-64.39,0-52.36,0-104.71,0-157.07,0h-215.55c-79.13,0-158.25,0-237.38,0-74.03,0-148.06,0-222.09,0H59.44c-1.37,0-2.75.02-4.12,0-27.47-.39-49.34-22.33-49.79-49.78-.05-3.21-5.05-3.22-5,0,.53,32.19,26.54,54.78,57.81,54.78h163.25c68.09,0,136.18,0,204.27,0,79.09,0,158.18,0,237.27,0,77.69,0,155.39,0,233.08,0,63.9,0,127.81,0,191.71,0h113.15c5.74,0,11.52.17,17.26-.03,25.62-.9,47.92-20.07,52.22-45.44,1.02-6.03.8-12.15.8-18.24,0-62.2,0-124.41,0-186.61s0-126.63,0-189.95c0-4.7.2-9.46-.12-14.15-1.7-25.58-21.58-47.21-47.05-50.72-7.16-.99-14.64-.55-21.85-.55-37.03,0-74.07,0-111.1,0H430.61c-68.6,0-137.2,0-205.8,0-45.31,0-90.62,0-135.93,0h-29.93c-2.97,0-5.91-.03-8.88.26-25.17,2.44-45.88,22.47-49.08,47.57-1.9,14.93-.46,30.77-.46,45.75,0,33.14,0,66.28,0,99.42,0,72.77,0,145.54,0,218.31,0,13.2,0,26.39,0,39.59,0,3.22,5,3.22,5,0Z"/>
      </g>
      <g class="cls-1">
        <g>
          <polygon class="cls-4" points="-215.73 1035.21 -238.4 1019.54 480.76 -38.78 503.55 -23.29 -215.73 1035.21"/>
          <polygon class="cls-4" points="-151.39 1058.87 556.07 17.77 578.9 33.29 -128.67 1074.55 -151.39 1058.87"/>
          <polygon class="cls-4" points="-64.38 1098.2 631.38 74.33 654.24 89.86 -41.62 1113.89 -64.38 1098.2"/>
          <polygon class="cls-4" points="22.63 1137.53 706.69 130.88 729.59 146.44 45.44 1153.24 22.63 1137.53"/>
          <polygon class="cls-4" points="109.64 1176.86 781.99 187.43 804.93 203.02 132.5 1192.58 109.64 1176.86"/>
          <polygon class="cls-4" points="196.65 1216.2 857.3 243.98 880.28 259.6 219.55 1231.92 196.65 1216.2"/>
          <polygon class="cls-4" points="283.66 1255.53 932.61 300.54 955.62 316.17 306.61 1271.26 283.66 1255.53"/>
          <polygon class="cls-4" points="370.67 1294.86 1007.92 357.09 1030.96 372.75 393.66 1310.61 370.67 1294.86"/>
          <polygon class="cls-4" points="457.68 1334.19 1083.23 413.64 1106.31 429.33 480.72 1349.95 457.68 1334.19"/>
          <polygon class="cls-4" points="544.69 1373.52 1158.53 470.19 1181.65 485.91 567.78 1389.29 544.69 1373.52"/>
          <polygon class="cls-4" points="631.7 1412.86 1233.84 526.75 1257 542.48 654.83 1428.63 631.7 1412.86"/>
          <polygon class="cls-4" points="718.71 1452.19 1309.15 583.3 1332.34 599.06 741.89 1467.98 718.71 1452.19"/>
          <polygon class="cls-4" points="805.72 1491.52 1384.46 639.85 1407.69 655.64 828.95 1507.32 805.72 1491.52"/>
          <rect class="cls-4" x="683.45" y="1107.47" width="1008.87" height="28.13" transform="translate(-407.39 1473.69) rotate(-55.8)"/>
        </g>
      </g>
      <rect class="cls-12" x="47.32" y="634.98" width="1177.21" height="432.95" rx="30.28" ry="30.28"/>
      <path class="cls-3" d="M5.53,1049.52c0-46.88,0-93.77,0-140.65,0-71.96,0-143.92,0-215.88,0-14.28-.85-28.84.12-43.1,1.77-26.06,23.95-45.91,49.73-46.27,1.72-.02,3.43,0,5.15,0,29.93,0,59.85,0,89.78,0,58.36,0,116.73,0,175.09,0,74.73,0,149.45,0,224.18,0,78.88,0,157.75,0,236.63,0,71.29,0,142.58,0,213.87,0,51.89,0,103.78,0,155.67,0,20.27,0,40.56-.29,60.82,0,27.46.4,49.38,22.36,49.78,49.8.06,4,0,8,0,12,0,25.23,0,50.45,0,75.68,0,75.34,0,150.69,0,226.03,0,24.28,0,48.56,0,72.84,0,5.8.31,11.81-.62,17.54-3.93,24.15-25.08,41.46-49.27,41.79-21.45.3-42.93,0-64.39,0-52.36,0-104.71,0-157.07,0h-215.55c-79.13,0-158.25,0-237.38,0-74.03,0-148.06,0-222.09,0H59.44c-1.37,0-2.75.02-4.12,0-27.47-.39-49.34-22.33-49.79-49.78-.05-3.21-5.05-3.22-5,0,.53,32.19,26.54,54.78,57.81,54.78h163.25c68.09,0,136.18,0,204.27,0,79.09,0,158.18,0,237.27,0,77.69,0,155.39,0,233.08,0,63.9,0,127.81,0,191.71,0h113.15c5.74,0,11.52.17,17.26-.03,25.62-.9,47.92-20.07,52.22-45.44,1.02-6.03.8-12.15.8-18.24,0-62.2,0-124.41,0-186.61s0-126.63,0-189.95c0-4.7.2-9.46-.12-14.15-1.7-25.58-21.58-47.21-47.05-50.72-7.16-.99-14.64-.55-21.85-.55-37.03,0-74.07,0-111.1,0H430.61c-68.6,0-137.2,0-205.8,0-45.31,0-90.62,0-135.93,0h-29.93c-2.97,0-5.91-.03-8.88.26-25.17,2.44-45.88,22.47-49.08,47.57-1.9,14.93-.46,30.77-.46,45.75,0,33.14,0,66.28,0,99.42,0,72.77,0,145.54,0,218.31,0,13.2,0,26.39,0,39.59,0,3.22,5,3.22,5,0Z"/>
    </g>
    <g class="cls-14">
      <path class="cls-11" d="M1194.21,876.31l3.79-104.38c.26-7.15-5.47-13.1-12.63-13.1h-61.54c-9.09,0-16.36,7.54-16.03,16.62h0c.03.84-.87,1.36-1.58.93-1.37-.82-2.76-1.62-4.19-2.37-13.76-7.29-29.59-10.99-47.05-10.99h-215.29v.37l-.24-.37h-361.24c-.41,0-.78.24-.95.61l-1.64,3.58c-.37.81-1.52.81-1.89,0l-1.66-3.58c-.17-.37-.54-.6-.94-.6H169.37c-.43,0-.77.35-.77.77h0c0,.51-.48.87-.97.74-7.67-2.11-15.97-3.18-24.87-3.18-19.77,0-36.63,5.34-50.11,15.88-15.58,12.18-23.82,29.52-23.82,50.16,0,5.96.67,11.57,2.01,16.83.17.66-.32,1.3-1,1.3h-1.18c-.59,0-1.06.48-1.04,1.07l.89,30.82c.41,14.17,4.65,26.77,12.58,37.41,7.48,10.04,17.39,17.64,29.45,22.57,10.53,4.32,22.28,6.51,34.91,6.51,13.66,0,26.05-2.74,36.83-8.13,5.91-2.95,11.19-6.53,15.8-10.69.67-.6,1.73-.12,1.73.78h0c0,9.32,7.55,16.87,16.87,16.87h114.89c10.8,0,20.39-6.88,23.85-17.11h0c.32-.94,1.65-.94,1.97,0l1.07,3.17c2.82,8.33,10.63,13.93,19.43,13.93h116.08c14.31,0,25.91-11.6,25.91-25.91v-36.2c0-.17.04-.33.12-.48l17.41-33.68c.5-.97,1.97-.61,1.97.48h0c0,.57,2.41.02,2.98.02l6.28,1.02c12.11,0,21.93,9.82,21.93,21.93v46.58c0,14.49,11.75,26.24,26.24,26.24h40.43c13.26,0,24-10.75,24-24h0c0-.96,1.19-1.41,1.82-.68,6.18,7.15,13.62,12.91,22.23,17.18,11.61,5.76,24.62,8.68,38.69,8.68s27.06-2.92,38.86-8.68c.08-.04.15-.08.23-.12h0c0,4.21,3.42,7.63,7.63,7.63h83.04v-.43l.28.43h200.97c17.33,0,33.11-3.69,46.9-10.95,4.31-2.27,8.34-4.83,12.09-7.68.47-.36,1.14-.25,1.48.24,1.31,1.91,2.77,3.74,4.39,5.47,8.61,9.2,20.45,14.27,33.36,14.27s24.61-5.07,33.2-14.26c8.2-8.75,12.53-19.88,12.53-32.17,0-7.47-1.58-14.52-4.62-20.87-.07-.15-.11-.31-.1-.47Z"/>
      <path class="cls-3" d="M122.3,908.72c-6.82-2.79-12.27-6.93-16.35-12.41-4.08-5.48-6.23-12.07-6.46-19.79h30.52c.45,4.36,1.95,7.69,4.53,9.98,2.57,2.29,5.92,3.44,10.06,3.44s7.6-.98,10.06-2.94c2.46-1.95,3.69-4.67,3.69-8.13,0-2.9-.98-5.31-2.94-7.21-1.96-1.9-4.36-3.46-7.21-4.7-2.85-1.23-6.9-2.62-12.16-4.19-7.6-2.35-13.81-4.7-18.61-7.04-4.81-2.35-8.94-5.81-12.41-10.4-3.47-4.58-5.2-10.56-5.2-17.94,0-10.95,3.97-19.54,11.91-25.74,7.94-6.2,18.28-9.31,31.02-9.31s23.42,3.1,31.36,9.31c7.94,6.21,12.18,14.84,12.74,25.91h-31.02c-.23-3.8-1.62-6.79-4.19-8.97-2.57-2.18-5.87-3.27-9.89-3.27-3.47,0-6.26.92-8.38,2.77-2.13,1.84-3.19,4.5-3.19,7.97,0,3.8,1.79,6.76,5.36,8.89,3.58,2.13,9.17,4.42,16.77,6.87,7.6,2.57,13.78,5.03,18.53,7.38,4.75,2.35,8.86,5.76,12.33,10.23,3.46,4.47,5.2,10.23,5.2,17.27s-1.71,12.8-5.11,18.28c-3.41,5.48-8.36,9.84-14.84,13.08-6.48,3.24-14.14,4.86-22.97,4.86s-16.32-1.4-23.14-4.19Z"/>
      <path class="cls-3" d="M290.66,794.02v22.97h-31.19v94.75h-28.67v-94.75h-31.19v-22.97h91.06Z"/>
      <path class="cls-3" d="M378.36,890.95h-43.94l-7.04,20.79h-30.02l42.59-117.72h33.2l42.59,117.72h-30.35l-7.04-20.79ZM370.98,868.81l-14.59-43.1-14.42,43.1h29.01Z"/>
      <path class="cls-3" d="M529.61,794.02l-40.75,78.81v38.9h-28.68v-38.9l-40.75-78.81h32.53l22.81,49.3,22.64-49.3h32.2Z"/>
      <path class="cls-6" d="M661.42,794.02v22.97h-31.19v94.75h-28.67v-94.75h-31.19v-22.97h91.06Z"/>
      <path class="cls-7" d="M704.01,794.02v70.43c0,7.04,1.73,12.47,5.2,16.27,3.46,3.8,8.55,5.7,15.26,5.7s11.85-1.9,15.43-5.7c3.58-3.8,5.37-9.22,5.37-16.27v-70.43h28.68v70.26c0,10.51-2.24,19.4-6.71,26.66-4.47,7.27-10.48,12.74-18.03,16.43-7.55,3.69-15.96,5.53-25.24,5.53s-17.58-1.82-24.9-5.45c-7.32-3.63-13.11-9.11-17.36-16.43-4.25-7.32-6.37-16.24-6.37-26.75v-70.26h28.68Z"/>
      <path class="cls-13" d="M899.37,911.74h-28.68l-47.96-72.61v72.61h-28.67v-117.72h28.67l47.96,72.94v-72.94h28.68v117.72Z"/>
      <path class="cls-9" d="M948.83,817v23.81h38.4v22.13h-38.4v25.83h43.43v22.97h-72.11v-117.72h72.11v22.97h-43.43Z"/>
      <path class="cls-10" d="M1087.51,801.4c9.28,4.92,16.46,11.82,21.55,20.71,5.09,8.89,7.63,19.15,7.63,30.77s-2.54,21.74-7.63,30.69c-5.09,8.94-12.3,15.88-21.63,20.79-9.34,4.92-20.15,7.38-32.45,7.38h-44.1v-117.72h44.1c12.41,0,23.25,2.46,32.53,7.38ZM1078.46,878.04c6.04-5.92,9.05-14.31,9.05-25.15s-3.02-19.28-9.05-25.32c-6.04-6.04-14.48-9.06-25.32-9.06h-13.58v68.42h13.58c10.84,0,19.28-2.96,25.32-8.89Z"/>
      <path class="cls-7" d="M1142.48,908.64c-2.77-2.96-4.16-6.62-4.16-10.98s1.39-8.22,4.16-11.24c2.77-3.02,6.35-4.53,10.72-4.53s7.8,1.51,10.58,4.53c2.77,3.02,4.16,6.76,4.16,11.24s-1.39,8.02-4.16,10.98c-2.77,2.96-6.3,4.44-10.58,4.44s-7.95-1.48-10.72-4.44ZM1166.33,789.83l-2.92,80.32h-21.15l-2.92-80.32h26.99Z"/>
    </g>
    <rect class="cls-3" x="133.91" y="1003.12" width="963.95" height="162.56" rx="31.92" ry="31.92" transform="translate(-108.53 69.29) rotate(-5.92)"/>
    <g>
      <path class="cls-11" d="M245.02,1098.73l.91,8.77-11.91,1.23,3.75,36.17-10.95,1.13-3.75-36.17-11.91,1.23-.91-8.77,34.76-3.6Z"/>
      <path class="cls-11" d="M283.69,1107.76c2.76,2.45,4.38,6.05,4.87,10.79l2.16,20.87-10.88,1.13-2.01-19.4c-.25-2.39-1.06-4.18-2.43-5.38-1.38-1.19-3.11-1.68-5.2-1.47s-3.69,1.05-4.79,2.5c-1.1,1.45-1.53,3.37-1.28,5.76l2.01,19.4-10.95,1.13-4.91-47.38,10.95-1.13,1.71,16.45c.95-1.69,2.33-3.11,4.15-4.25,1.82-1.14,3.93-1.83,6.32-2.08,4.1-.42,7.52.59,10.28,3.04Z"/>
      <path class="cls-11" d="M330.24,1119.92l-24.78,2.57c.4,2.2,1.29,3.82,2.67,4.87,1.38,1.04,2.99,1.47,4.82,1.28,2.73-.28,4.51-1.63,5.34-4.05l11.65-1.21c-.36,2.41-1.21,4.63-2.58,6.67-1.36,2.04-3.16,3.72-5.4,5.02-2.24,1.31-4.81,2.12-7.71,2.42-3.5.36-6.69-.06-9.58-1.27-2.89-1.21-5.24-3.12-7.07-5.74-1.82-2.61-2.93-5.78-3.31-9.49-.38-3.71.04-7.03,1.26-9.97,1.23-2.93,3.13-5.28,5.71-7.06,2.58-1.78,5.64-2.85,9.18-3.22s6.61.05,9.44,1.22c2.84,1.17,5.16,3.02,6.95,5.56,1.79,2.53,2.88,5.59,3.25,9.18.11,1.02.15,2.1.14,3.22ZM318.6,1114.98c-.19-1.88-.99-3.31-2.39-4.28-1.4-.98-3.05-1.37-4.97-1.17s-3.33.88-4.48,2.08c-1.15,1.2-1.77,2.79-1.87,4.79l13.7-1.42Z"/>
      <path class="cls-11" d="M348.39,1105.55c1.1-2.92,2.77-5.25,5-6.99,2.24-1.74,4.83-2.77,7.77-3.07,2.52-.26,4.78.02,6.79.85,2,.83,3.61,2.02,4.8,3.58l-.52-5.06,10.95-1.13,3.7,35.72-10.95,1.13-.52-5.06c-.9,1.77-2.24,3.27-4.03,4.49-1.79,1.22-3.95,1.96-6.47,2.22-2.9.3-5.63-.18-8.17-1.45-2.55-1.27-4.66-3.23-6.34-5.88-1.68-2.65-2.71-5.81-3.09-9.48s-.02-6.96,1.08-9.88ZM371.14,1106.49c-1.68-1.42-3.61-2.02-5.78-1.79s-3.94,1.2-5.3,2.91c-1.35,1.72-1.89,3.94-1.61,6.67s1.26,4.82,2.95,6.26c1.68,1.44,3.61,2.05,5.79,1.83s3.94-1.21,5.29-2.94c1.35-1.74,1.89-3.97,1.6-6.7s-1.27-4.81-2.94-6.23Z"/>
      <path class="cls-11" d="M391.86,1101.04c1.1-2.92,2.77-5.25,5-6.99,2.24-1.74,4.83-2.77,7.77-3.07,2.35-.24,4.54.03,6.59.81,2.04.78,3.71,1.95,4.99,3.49l-1.72-16.58,10.95-1.13,4.91,47.38-10.95,1.13-.53-5.12c-.85,1.81-2.17,3.33-3.96,4.55-1.79,1.22-3.95,1.96-6.47,2.22-2.95.31-5.69-.18-8.24-1.44-2.55-1.27-4.66-3.23-6.34-5.88-1.68-2.65-2.71-5.81-3.09-9.48s-.02-6.96,1.08-9.88ZM414.61,1101.98c-1.68-1.42-3.61-2.02-5.78-1.79s-3.94,1.2-5.3,2.91c-1.35,1.72-1.89,3.94-1.61,6.67s1.26,4.82,2.95,6.26c1.68,1.44,3.61,2.05,5.79,1.83s3.94-1.21,5.29-2.94c1.35-1.74,1.89-3.97,1.6-6.7s-1.27-4.81-2.94-6.23Z"/>
      <path class="cls-11" d="M453.3,1112.21l5.11-26.28,11.65-1.21-8.97,37.04-13.51,1.4-16.38-34.41,11.72-1.21,10.39,24.68Z"/>
      <path class="cls-11" d="M510.27,1101.25l-24.78,2.57c.4,2.2,1.29,3.82,2.67,4.87,1.38,1.04,2.99,1.47,4.82,1.28,2.73-.28,4.51-1.63,5.34-4.05l11.65-1.21c-.36,2.41-1.21,4.63-2.58,6.67-1.36,2.04-3.16,3.72-5.4,5.02-2.24,1.31-4.81,2.12-7.71,2.42-3.5.36-6.69-.06-9.58-1.27-2.89-1.21-5.24-3.12-7.07-5.74-1.82-2.61-2.93-5.78-3.31-9.49s.04-7.03,1.26-9.97c1.23-2.93,3.13-5.28,5.71-7.06,2.58-1.78,5.64-2.85,9.18-3.22s6.61.05,9.44,1.22c2.84,1.17,5.16,3.02,6.95,5.56,1.79,2.53,2.88,5.59,3.25,9.18.11,1.02.15,2.1.14,3.22ZM498.63,1096.31c-.19-1.88-.99-3.31-2.39-4.28-1.4-.98-3.05-1.37-4.97-1.17s-3.33.88-4.48,2.08c-1.15,1.2-1.77,2.79-1.87,4.79l13.7-1.42Z"/>
      <path class="cls-11" d="M546.27,1080.54c2.78,2.45,4.41,6.05,4.9,10.78l2.16,20.87-10.88,1.13-2.01-19.4c-.25-2.39-1.06-4.18-2.43-5.38-1.38-1.19-3.11-1.68-5.2-1.47s-3.69,1.05-4.79,2.5c-1.1,1.45-1.53,3.37-1.28,5.76l2.01,19.4-10.95,1.13-3.7-35.72,10.95-1.13.49,4.74c.95-1.69,2.31-3.1,4.09-4.21,1.78-1.11,3.85-1.79,6.2-2.03,4.18-.43,7.66.58,10.44,3.03Z"/>
      <path class="cls-11" d="M579.91,1100.05l.96,9.28-5.57.58c-3.97.41-7.16-.24-9.59-1.95-2.42-1.71-3.86-4.77-4.31-9.16l-1.47-14.21-4.35.45-.94-9.09,4.35-.45-.9-8.71,10.95-1.13.9,8.71,7.17-.74.94,9.09-7.17.74,1.49,14.34c.11,1.07.45,1.81,1.01,2.23.56.42,1.44.56,2.63.44l3.91-.4Z"/>
      <path class="cls-11" d="M618.52,1069.32l3.7,35.72-10.95,1.13-.5-4.87c-.95,1.69-2.32,3.12-4.12,4.28-1.8,1.16-3.85,1.85-6.16,2.09-2.73.28-5.21-.07-7.42-1.07-2.22-1-4.02-2.59-5.41-4.78-1.39-2.19-2.25-4.84-2.57-7.95l-2.16-20.87,10.88-1.13,2.01,19.4c.25,2.39,1.06,4.18,2.43,5.38,1.37,1.2,3.11,1.68,5.2,1.47s3.75-1.06,4.85-2.51c1.1-1.45,1.53-3.37,1.28-5.76l-2.01-19.4,10.95-1.13Z"/>
      <path class="cls-11" d="M642.28,1068.19c1.8-1.33,3.88-2.12,6.23-2.36l1.2,11.59-3.01.31c-2.73.28-4.72,1.08-5.96,2.4-1.24,1.32-1.71,3.45-1.41,6.39l1.72,16.58-10.95,1.13-3.7-35.72,10.95-1.13.62,5.95c1.08-2.1,2.52-3.81,4.32-5.14Z"/>
      <path class="cls-11" d="M689.41,1082.68l-24.78,2.57c.4,2.2,1.29,3.82,2.67,4.87,1.38,1.04,2.99,1.47,4.82,1.28,2.73-.28,4.51-1.63,5.34-4.05l11.65-1.21c-.36,2.41-1.21,4.63-2.58,6.67-1.36,2.04-3.16,3.72-5.4,5.02-2.24,1.31-4.81,2.12-7.71,2.42-3.5.36-6.69-.06-9.58-1.27-2.89-1.21-5.24-3.12-7.07-5.74-1.82-2.61-2.93-5.78-3.31-9.49s.04-7.03,1.26-9.97c1.23-2.93,3.13-5.28,5.71-7.06,2.58-1.78,5.64-2.85,9.18-3.22s6.61.05,9.44,1.22c2.84,1.17,5.16,3.02,6.95,5.56,1.79,2.53,2.88,5.59,3.25,9.18.11,1.02.15,2.1.14,3.22ZM677.76,1077.74c-.19-1.88-.99-3.31-2.39-4.28-1.4-.98-3.05-1.37-4.97-1.17s-3.33.88-4.48,2.08c-1.15,1.2-1.77,2.79-1.87,4.79l13.7-1.42Z"/>
      <path class="cls-11" d="M707.75,1068.29c1.23-2.93,3.12-5.28,5.67-7.06,2.55-1.77,5.58-2.84,9.08-3.21,4.48-.46,8.35.32,11.6,2.36,3.25,2.04,5.57,5.14,6.95,9.31l-11.65,1.21c-1.27-2.63-3.31-3.8-6.12-3.51-2.01.21-3.53,1.15-4.56,2.83-1.03,1.68-1.4,3.97-1.1,6.88s1.13,5.07,2.49,6.5c1.36,1.43,3.04,2.05,5.04,1.84,2.82-.29,4.57-1.85,5.27-4.69l11.65-1.21c-.51,4.28-2.15,7.77-4.93,10.48-2.78,2.7-6.39,4.29-10.83,4.75-3.5.36-6.68-.06-9.55-1.28-2.87-1.21-5.2-3.13-7-5.74-1.8-2.62-2.9-5.78-3.28-9.5-.38-3.71.04-7.03,1.26-9.97Z"/>
      <path class="cls-11" d="M755.88,1089.45c-2.95-1.2-5.37-3.11-7.26-5.72-1.89-2.61-3.02-5.77-3.41-9.48s.09-6.99,1.43-9.95c1.33-2.96,3.33-5.34,5.99-7.12,2.66-1.79,5.74-2.86,9.24-3.22s6.74.06,9.71,1.26c2.97,1.2,5.41,3.12,7.33,5.74,1.91,2.63,3.06,5.78,3.44,9.45s-.11,6.99-1.46,9.95c-1.35,2.97-3.37,5.34-6.05,7.13-2.68,1.79-5.78,2.86-9.28,3.23s-6.73-.06-9.68-1.26ZM769.68,1078.37c1.31-1.69,1.82-3.96,1.53-6.82s-1.24-4.98-2.83-6.37c-1.59-1.39-3.43-1.97-5.52-1.76s-3.83,1.16-5.08,2.82c-1.25,1.66-1.73,3.94-1.43,6.85s1.22,4.99,2.76,6.38c1.55,1.39,3.37,1.98,5.46,1.76s3.79-1.17,5.11-2.86Z"/>
      <path class="cls-11" d="M818.49,1052.31c2.78,2.45,4.41,6.05,4.9,10.78l2.16,20.87-10.88,1.13-2.01-19.4c-.25-2.39-1.06-4.18-2.43-5.38-1.38-1.19-3.11-1.68-5.2-1.47s-3.69,1.05-4.79,2.5c-1.1,1.45-1.53,3.37-1.28,5.76l2.01,19.4-10.95,1.13-3.7-35.72,10.95-1.13.49,4.74c.95-1.69,2.31-3.1,4.09-4.21,1.78-1.11,3.85-1.79,6.2-2.03,4.18-.43,7.66.58,10.44,3.03Z"/>
      <path class="cls-11" d="M852.13,1071.83l.96,9.28-5.57.58c-3.97.41-7.16-.24-9.59-1.95-2.42-1.71-3.86-4.77-4.31-9.16l-1.47-14.21-4.35.45-.94-9.09,4.35-.45-.9-8.71,10.95-1.13.9,8.71,7.17-.74.94,9.09-7.17.74,1.49,14.34c.11,1.07.45,1.81,1.01,2.23.56.42,1.44.56,2.63.44l3.91-.4Z"/>
      <path class="cls-11" d="M855.71,1039.27c-1.33-1-2.09-2.34-2.26-4s.28-3.19,1.38-4.45c1.1-1.26,2.61-1.99,4.53-2.18s3.48.21,4.82,1.22c1.33,1.01,2.09,2.36,2.27,4.07s-.29,3.13-1.39,4.38c-1.1,1.26-2.59,1.98-4.47,2.18s-3.55-.2-4.88-1.21ZM866.41,1043.63l3.7,35.72-10.95,1.13-3.7-35.72,10.95-1.13Z"/>
      <path class="cls-11" d="M906.52,1043.19c2.78,2.45,4.41,6.05,4.9,10.78l2.16,20.87-10.88,1.13-2.01-19.4c-.25-2.39-1.06-4.18-2.43-5.38-1.38-1.19-3.11-1.68-5.2-1.47s-3.69,1.05-4.79,2.5c-1.1,1.45-1.53,3.37-1.28,5.76l2.01,19.4-10.95,1.13-3.7-35.72,10.95-1.13.49,4.74c.95-1.69,2.31-3.1,4.09-4.21,1.78-1.11,3.85-1.79,6.2-2.03,4.18-.43,7.66.58,10.44,3.03Z"/>
      <path class="cls-11" d="M952.78,1034.67l3.7,35.72-10.95,1.13-.5-4.87c-.95,1.69-2.32,3.12-4.12,4.28-1.8,1.16-3.85,1.85-6.16,2.09-2.73.28-5.21-.07-7.42-1.07-2.22-1-4.02-2.59-5.41-4.78-1.39-2.19-2.25-4.84-2.57-7.95l-2.16-20.87,10.88-1.13,2.01,19.4c.25,2.39,1.06,4.18,2.43,5.38,1.37,1.2,3.11,1.68,5.2,1.47s3.75-1.06,4.85-2.51c1.1-1.45,1.53-3.37,1.28-5.76l-2.01-19.4,10.95-1.13Z"/>
      <path class="cls-11" d="M996.26,1050.87l-24.78,2.57c.4,2.2,1.29,3.82,2.67,4.87,1.38,1.04,2.99,1.47,4.82,1.28,2.73-.28,4.51-1.63,5.34-4.05l11.65-1.21c-.36,2.41-1.21,4.63-2.58,6.67-1.36,2.04-3.16,3.72-5.4,5.02-2.24,1.31-4.81,2.12-7.71,2.42-3.5.36-6.69-.06-9.58-1.27-2.89-1.21-5.24-3.12-7.07-5.74-1.82-2.61-2.93-5.78-3.31-9.49s.04-7.03,1.26-9.97c1.23-2.93,3.13-5.28,5.71-7.06,2.58-1.78,5.64-2.85,9.18-3.22s6.61.05,9.44,1.22c2.84,1.17,5.16,3.02,6.95,5.56,1.79,2.53,2.88,5.59,3.25,9.18.11,1.02.15,2.1.14,3.22ZM984.62,1045.93c-.19-1.88-.99-3.31-2.39-4.28-1.4-.98-3.05-1.37-4.97-1.17s-3.33.88-4.48,2.08c-1.15,1.2-1.77,2.79-1.87,4.79l13.7-1.42Z"/>
      <path class="cls-11" d="M1009.89,1063.76c-2.54-.81-4.62-2.08-6.22-3.79-1.6-1.71-2.61-3.71-3.02-6l10.82-1.12c.26,1.22.94,2.17,2.04,2.83,1.1.66,2.4.92,3.9.76,1.37-.14,2.39-.52,3.09-1.13.69-.61.99-1.34.9-2.2-.11-1.02-.72-1.73-1.84-2.11s-2.9-.74-5.35-1.1c-2.62-.33-4.82-.74-6.6-1.22-1.78-.48-3.36-1.38-4.74-2.68-1.39-1.3-2.21-3.17-2.46-5.6-.21-2.05.16-3.97,1.12-5.78.96-1.8,2.48-3.31,4.58-4.52,2.1-1.21,4.66-1.97,7.69-2.29,4.48-.46,8.13.28,10.94,2.23,2.81,1.95,4.6,4.74,5.37,8.37l-10.11,1.05c-.3-1.22-.95-2.14-1.94-2.78-.99-.63-2.24-.87-3.73-.71-1.28.13-2.24.48-2.87,1.04-.63.56-.9,1.27-.82,2.12.11,1.02.73,1.74,1.87,2.14s2.89.74,5.25,1.01c2.72.41,4.94.86,6.68,1.35,1.73.49,3.31,1.4,4.72,2.75,1.41,1.34,2.27,3.25,2.57,5.72.22,2.09-.18,4.02-1.18,5.79-1,1.76-2.56,3.23-4.66,4.4-2.1,1.17-4.6,1.9-7.5,2.2-3.12.32-5.95.08-8.49-.74Z"/>
    </g>
  </g>
</svg>